<svg id="iconos" xmlns="http://www.w3.org/2000/svg" viewBox="0 0 18 18"><defs><style>.cls-1{fill:#efeeed;}</style></defs><title>Ashoka-Landing-Mobile</title><path class="cls-1" d="M9.33,2.93a6,6,0,0,0-5.7,6,5.92,5.92,0,0,0,.65,2.71l-.64,3.09a.23.23,0,0,0,.28.27l3-.72a5.92,5.92,0,0,0,2.58.63,6,6,0,1,0-.2-12ZM13,12.24a4.67,4.67,0,0,1-3.32,1.38,4.76,4.76,0,0,1-2.1-.49l-.42-.21-1.86.44.4-1.9-.21-.41a4.61,4.61,0,0,1-.51-2.13,4.7,4.7,0,1,1,8,3.32Z"/><path class="cls-1" d="M12.54,10.22l-1.17-.33A.41.41,0,0,0,11,10l-.29.29a.44.44,0,0,1-.46.1,6.28,6.28,0,0,1-2-1.77.42.42,0,0,1,0-.47l.25-.32a.41.41,0,0,0,0-.44l-.48-1.1a.43.43,0,0,0-.68-.16,2,2,0,0,0-.76,1.15c-.08.82.27,1.84,1.59,3.08C9.73,11.78,11,12,11.74,11.78a1.94,1.94,0,0,0,1-.91A.43.43,0,0,0,12.54,10.22Z"/></svg>