<svg xmlns="http://www.w3.org/2000/svg" viewBox="0 0 16 16"><defs><style>.cls-1{fill:#fff;}</style></defs><title>Ashoka-Landing-Mobile</title><g id="iconos"><path class="cls-1" d="M13.47,5.28a3.9,3.9,0,0,0-.26-1.36,2.88,2.88,0,0,0-1.63-1.63A4.35,4.35,0,0,0,10.23,2c-.6,0-.78,0-2.3,0S6.23,2,5.64,2a4.15,4.15,0,0,0-1.36.26,2.59,2.59,0,0,0-1,.65,2.59,2.59,0,0,0-.65,1A4.16,4.16,0,0,0,2.4,5.27c0,.6,0,.79,0,2.3s0,1.7,0,2.3a4.08,4.08,0,0,0,.26,1.35,2.88,2.88,0,0,0,1.63,1.63,4.14,4.14,0,0,0,1.35.26c.6,0,.79,0,2.3,0s1.7,0,2.3,0a4.08,4.08,0,0,0,1.35-.26,2.84,2.84,0,0,0,1.63-1.63,4.08,4.08,0,0,0,.26-1.35c0-.6,0-.79,0-2.3S13.5,5.87,13.47,5.28Zm-1,4.54a3.46,3.46,0,0,1-.19,1,1.9,1.9,0,0,1-1.06,1.06,3.44,3.44,0,0,1-1,.19c-.59,0-.77,0-2.26,0s-1.66,0-2.25,0a3.44,3.44,0,0,1-1-.19A1.7,1.7,0,0,1,4,11.5a1.83,1.83,0,0,1-.42-.64,3.37,3.37,0,0,1-.19-1c0-.59,0-.77,0-2.25s0-1.67,0-2.25a3.46,3.46,0,0,1,.19-1A1.83,1.83,0,0,1,4,3.65a1.8,1.8,0,0,1,.64-.41,3.09,3.09,0,0,1,1-.2c.58,0,.76,0,2.25,0S9.6,3,10.19,3a3,3,0,0,1,1,.2,1.8,1.8,0,0,1,.64.41,1.7,1.7,0,0,1,.42.64,3.46,3.46,0,0,1,.19,1c0,.58,0,.76,0,2.25S12.49,9.24,12.47,9.82Z"/><path class="cls-1" d="M7.93,4.71a2.86,2.86,0,1,0,2.86,2.86A2.86,2.86,0,0,0,7.93,4.71Zm0,4.72A1.86,1.86,0,1,1,9.79,7.57,1.85,1.85,0,0,1,7.93,9.43Z"/><path class="cls-1" d="M11.58,4.6a.67.67,0,0,1-1.34,0,.67.67,0,0,1,1.34,0Z"/></g></svg>